<svg width="472" height="435" viewBox="0 0 472 435" fill="none" xmlns="http://www.w3.org/2000/svg">
<g id="exit-full-screen">
<g id="Vector">
<path d="M41.9342 142.765C45.8265 142.874 49.5248 144.597 52.241 147.568C54.9572 150.539 56.4765 154.521 56.4752 158.668V345.066C56.577 353.357 59.715 361.277 65.2208 367.14C70.7265 373.003 78.1646 376.345 85.9502 376.453H385.416C393.202 376.345 400.64 373.003 406.146 367.14C411.651 361.277 414.789 353.357 414.891 345.066V89.3624C414.788 81.1106 411.637 73.2342 406.12 67.4381C400.604 61.642 393.166 58.3926 385.416 58.3934L175.683 58.3932C171.722 58.3932 167.924 56.7177 165.123 53.7353C162.323 50.7529 160.749 46.7079 160.749 42.4902C160.748 40.421 161.137 38.3727 161.892 36.4662C162.648 34.5597 163.754 32.8338 165.146 31.3903C166.538 29.9468 168.188 28.8151 169.998 28.062C171.808 27.3089 173.741 26.9497 175.683 27.0057L385.416 27.0059C400.983 27.0055 415.918 33.5618 426.962 45.244C438.006 56.9263 444.262 72.786 444.366 89.3624V345.066C444.263 361.681 438.019 377.584 426.986 389.333C415.953 401.082 401.019 407.731 385.416 407.841H85.9502C70.3475 407.731 55.4131 401.082 44.3801 389.333C33.347 377.584 27.1032 361.681 27.0002 345.066V158.668C27.0002 154.45 28.5736 150.405 31.3743 147.423C34.1749 144.44 37.9735 142.765 41.9342 142.765Z" fill="#F5F8FC"/>
<path d="M42.1234 129.265H41.9342C34.1095 129.265 26.7907 132.583 21.5332 138.181C16.3028 143.751 13.5002 151.134 13.5002 158.668V345.066V345.108L13.5004 345.15C13.6238 365.053 21.0968 384.26 34.539 398.575C48.0073 412.917 66.4231 421.204 85.8553 421.341L85.9027 421.341H85.9502H385.416H385.464L385.511 421.341C404.943 421.204 423.359 412.917 436.827 398.575C450.27 384.26 457.743 365.053 457.866 345.15L457.866 345.108V345.066V89.3624V89.3201L457.866 89.2778C457.741 69.3993 450.245 50.2216 436.772 35.9698C423.272 21.6898 404.83 13.5055 385.416 13.5059C385.416 13.5059 385.416 13.5059 385.416 13.5059L175.844 13.5057C172.052 13.4282 168.3 14.1464 164.811 15.598C161.256 17.0776 158.073 19.2766 155.429 22.0186C152.786 24.7587 150.73 27.9882 149.341 31.4944C147.953 34.998 147.248 38.7344 147.249 42.4902L42.1234 129.265ZM42.1234 129.265L42.3125 129.27M42.1234 129.265L42.3125 129.27M42.3125 129.27C49.9984 129.485 57.1127 132.89 62.204 138.458C67.2699 143.999 69.9765 151.262 69.9752 158.668C69.9752 158.669 69.9752 158.671 69.9752 158.672V344.972C70.0541 349.974 71.9599 354.596 75.0618 357.899C78.133 361.169 82.0953 362.877 86.0593 362.953H385.307C389.271 362.877 393.233 361.169 396.305 357.899C399.406 354.596 401.312 349.975 401.391 344.973V89.4578C401.311 84.5227 399.414 79.9735 396.342 76.7452C393.28 73.5287 389.337 71.893 385.417 71.8934L385.416 71.8934M42.3125 129.27L385.416 71.8934M385.416 71.8934L175.683 71.8932M385.416 71.8934L175.683 71.8932M175.683 71.8932C167.858 71.8932 160.54 68.5753 155.282 62.9767M175.683 71.8932L155.282 62.9767M155.282 62.9767C150.053 57.408 147.25 50.0271 147.249 42.4948L155.282 62.9767Z" stroke="url(#paint0_linear_107_2977)" stroke-opacity="0.39" stroke-width="27"/>
</g>
<g id="Vector_2">
<path d="M153.952 237.571L230.047 242.296L67.2664 79.9808C65.0796 77.7489 63.5902 74.8543 62.9974 71.6841C62.4045 68.5138 62.7365 65.219 63.9489 62.24C65.1612 59.261 67.1962 56.7399 69.7818 55.0136C72.3674 53.2873 75.3804 52.4382 78.4179 52.5797C81.8666 52.8483 85.1115 54.3836 87.5984 56.9234L252.551 222.309L256.597 157.148C256.949 153.089 258.75 149.316 261.629 146.608C264.508 143.9 268.245 142.463 272.07 142.595V142.595C276.023 142.84 279.71 144.748 282.321 147.898C284.931 151.048 286.251 155.183 285.99 159.392L279.713 260.475C279.459 264.574 277.686 268.41 274.784 271.139C271.882 273.868 268.09 275.267 264.241 275.028L152.451 268.087C149 267.262 145.946 265.156 143.836 262.144C141.725 259.133 140.694 255.413 140.928 251.648C141.162 247.883 142.645 244.319 145.112 241.592C147.579 238.865 150.869 237.152 154.396 236.76L153.952 237.571Z" fill="#F5F8FC"/>
<path d="M178.705 220.474L176 225.414L195.193 226.606L57.7341 89.5404L57.6785 89.4849L57.6235 89.4288C53.5011 85.2213 50.7953 79.8764 49.7274 74.1656C48.6601 68.4582 49.2536 62.5351 51.4447 57.1512C53.6376 51.7628 57.3735 47.0657 62.2857 43.786C67.2113 40.4974 73.0605 38.8154 79.0462 39.0943L79.2564 39.1041L79.4662 39.1205C86.2451 39.6485 92.4962 42.6534 97.194 47.4273L240.935 191.545L243.123 156.312L243.133 156.147L243.148 155.983C243.776 148.728 247.001 141.833 252.38 136.774C257.783 131.692 264.983 128.843 272.533 129.102L272.07 142.595L272.906 129.12C280.716 129.605 287.815 133.37 292.716 139.284C297.591 145.167 299.93 152.71 299.464 160.229L293.187 261.311C292.727 268.72 289.521 275.811 284.033 280.972C278.518 286.161 271.11 288.981 263.404 288.502L151.614 281.561L150.448 281.489L149.311 281.217C142.527 279.595 136.709 275.497 132.781 269.893C128.866 264.307 127.036 257.544 127.454 250.811C127.872 244.079 130.525 237.593 135.1 232.535C139.691 227.46 145.972 224.114 152.904 223.343L178.705 220.474Z" stroke="url(#paint1_linear_107_2977)" stroke-opacity="0.39" stroke-width="27"/>
</g>
</g>
<defs>
<linearGradient id="paint0_linear_107_2977" x1="235.683" y1="27" x2="235.683" y2="407.841" gradientUnits="userSpaceOnUse">
<stop stop-color="#DCDCDC"/>
<stop offset="1" stop-color="#F1F1F1"/>
</linearGradient>
<linearGradient id="paint1_linear_107_2977" x1="164.719" y1="268.849" x2="177.764" y2="58.7482" gradientUnits="userSpaceOnUse">
<stop stop-color="#DCDCDC"/>
<stop offset="1" stop-color="#F1F1F1"/>
</linearGradient>
</defs>
</svg>
