<svg  viewBox="0 0 1547 1547" fill="none" xmlns="http://www.w3.org/2000/svg">
<g id="play">
<g id="Group">
<path id="Vector" d="M773.5 1547C566.889 1547 372.648 1466.54 226.555 1320.45C80.4563 1174.35 0 980.108 0 773.5C0 566.892 80.4563 372.648 226.555 226.552C372.648 80.4563 566.889 0 773.5 0C980.111 0 1174.35 80.4563 1320.44 226.552C1466.54 372.648 1547 566.892 1547 773.5C1547 980.108 1466.54 1174.35 1320.44 1320.45C1174.35 1466.54 980.111 1547 773.5 1547ZM773.5 61.6335C380.975 61.6335 61.6335 380.975 61.6335 773.5C61.6335 1166.03 380.975 1485.37 773.5 1485.37C1166.03 1485.37 1485.37 1166.03 1485.37 773.5C1485.37 380.975 1166.03 61.6335 773.5 61.6335Z" fill="white"/>
</g>
<g id="Group_2">
<g id="Group_3">
<path id="Vector_2" d="M598.257 1235.75C580.916 1235.75 563.65 1231.46 548.322 1223.33C513.363 1204.8 491.646 1168.7 491.646 1129.13V417.866C491.646 378.3 513.363 342.204 548.318 323.671C583.274 305.141 625.336 307.412 658.088 329.619L1182.68 685.25C1211.98 705.111 1229.48 738.104 1229.48 773.5C1229.48 808.893 1211.98 841.885 1182.68 861.75L658.088 1217.38C640.368 1229.4 619.678 1235.75 598.257 1235.75ZM598.269 372.867C591.055 372.867 583.822 374.605 577.191 378.124C562.442 385.946 553.28 401.172 553.28 417.866V1129.13C553.28 1145.83 562.442 1161.06 577.191 1168.88C583.659 1172.3 590.944 1174.12 598.257 1174.12C607.299 1174.12 616.026 1171.44 623.499 1166.37L1148.1 810.736C1160.46 802.354 1167.84 788.437 1167.84 773.5C1167.84 758.563 1160.46 744.646 1148.1 736.267L623.502 380.633C615.896 375.477 607.101 372.867 598.269 372.867Z" fill="white"/>
</g>
</g>
<g id="Group_4">
<path id="Vector_3" d="M881.396 194.262C879.627 194.262 877.833 194.111 876.03 193.794C810.748 182.336 742.209 181.994 676.828 192.796C660.024 195.578 644.172 184.207 641.401 167.415C638.628 150.623 649.99 134.761 666.782 131.988C738.988 120.059 814.594 120.432 886.687 133.091C903.448 136.034 914.653 152.01 911.71 168.774C909.085 183.732 896.077 194.262 881.396 194.262Z" fill="white"/>
</g>
<g id="Group_5">
<path id="Vector_4" d="M1355.45 591.684C1342.88 591.684 1331.08 583.931 1326.51 571.438C1276.06 433.406 1176.37 319.798 1045.81 251.535C1030.72 243.649 1024.89 225.03 1032.78 209.948C1040.66 194.863 1059.28 189.03 1074.36 196.916C1218.56 272.306 1328.67 397.798 1384.39 550.279C1390.24 566.264 1382.02 583.959 1366.03 589.801C1362.54 591.077 1358.96 591.684 1355.45 591.684Z" fill="white"/>
</g>
</g>
</svg>
