<svg width="127" height="127" viewBox="0 0 127 127" fill="none" xmlns="http://www.w3.org/2000/svg">
<path d="M127 3.45264e-06L-7.82427e-05 1.72075e-05C-7.82427e-05 1.72075e-05 55.1385 53.7695 57.2599 55.8908C58.6741 57.305 59.3812 56.5979 60.0883 55.8908L63.6238 52.3553C57.2599 48.8197 57.967 43.87 59.3812 41.0416C59.3812 41.0416 60.0883 40.3345 60.0883 37.506C60.0883 36.0918 58.6741 31.8492 61.5025 34.6776C63.6238 36.7989 62.2096 41.0416 62.2096 41.0416C61.5025 45.9913 65.038 48.1126 67.1594 48.8197C68.5736 47.4055 71.402 47.4055 71.402 47.4055C66.4522 41.0416 64.3309 34.6776 72.1091 26.8995C74.9375 24.071 77.7659 22.6568 80.5944 22.6568C80.5944 22.6568 82.0086 18.4142 86.9583 16.2929C86.9583 16.2929 90.4938 19.8284 90.4938 25.4852C94.0294 26.1923 101.1 33.2634 101.808 36.7989C107.464 36.7989 111 40.3345 111 40.3345C107.464 46.6984 104.636 46.6984 104.636 46.6984C104.636 49.5269 103.222 52.3553 100.393 55.1837C92.6152 62.9619 85.5441 60.1334 79.8873 55.8908C79.8873 57.305 79.1802 59.4263 77.0589 61.5476L71.402 67.2045C70.6949 67.9116 69.9878 68.6187 71.402 70.0329C73.5233 72.1542 127 127 127 127L127 3.45264e-06Z" fill="black"/>
</svg>
